<svg xmlns="http://www.w3.org/2000/svg" xmlns:xlink="http://www.w3.org/1999/xlink" width="252" height="71" viewBox="0 0 252 71"><defs><filter id="a" x="0" y="0" width="252" height="68" filterUnits="userSpaceOnUse"><feOffset dx="2" input="SourceAlpha"/><feGaussianBlur stdDeviation="3" result="b"/><feFlood flood-opacity="0.31"/><feComposite operator="in" in2="b"/><feComposite in="SourceGraphic"/></filter><filter id="c" x="9.765" y="3.001" width="240.236" height="67.999" filterUnits="userSpaceOnUse"><feOffset dy="3" input="SourceAlpha"/><feGaussianBlur stdDeviation="3" result="d"/><feFlood flood-opacity="0.239"/><feComposite operator="in" in2="d"/><feComposite in="SourceGraphic"/></filter></defs><g transform="translate(-202 -385)"><g transform="matrix(1, 0, 0, 1, 202, 385)" filter="url(#a)"><rect width="234" height="50" rx="3" transform="translate(7 9)" fill="#fff"/></g><g transform="matrix(1, 0, 0, 1, 202, 385)" filter="url(#c)"><path d="M-8389.668-7886.111h-123.188v-43.09a3.333,3.333,0,0,0-2.357,1.061,6.122,6.122,0,0,0-1.289,2.4,12.01,12.01,0,0,0-.361,3.481h-.54v-7.5h4.548v-6.35h123.188a3,3,0,0,1,3,3v44A3,3,0,0,1-8389.668-7886.111Zm-20.936-8.428v.54h6.3v-.54h-1.86l-6.179-21.72,4.379-12.961h2.042v-.541h-4.621v.541h2.039l-5.7,16.26v-16.26h1.681v-.541h-6.3v.541h1.679v34.681h-1.679v.54h6.3v-.54h-1.681v-17.341l5.159,17.341Zm-50.7,0v.54h6.3v-.54h-1.682v-34.681H-8455v-.541h-6.3v.541h1.682v34.681Zm-26.7,0v.54h6.3v-.54h-1.681v-15.419h2.7a1.859,1.859,0,0,1,1.351.568,1.853,1.853,0,0,1,.57,1.35v11.581a2.376,2.376,0,0,0,.72,1.739,2.38,2.38,0,0,0,1.739.722h.959a1.111,1.111,0,0,0,.813-.331,1.115,1.115,0,0,0,.328-.811v-2.279h-.54v2.161a.638.638,0,0,1-.72.72.372.372,0,0,1-.419-.421v-10.68a4.666,4.666,0,0,0-.931-2.819,4.814,4.814,0,0,0-2.311-1.742,4.809,4.809,0,0,0,2.311-1.739,4.666,4.666,0,0,0,.931-2.819v-10.2a4.64,4.64,0,0,0-1.411-3.39,4.641,4.641,0,0,0-3.39-1.411H-8488v.541h1.682v34.681Zm-24.3,0v.54h6.3v-.54h-1.681v-34.681h1.741a3.574,3.574,0,0,1,2.85,1.08,6.854,6.854,0,0,1,1.351,2.4,11.982,11.982,0,0,1,.358,3.48h.479v-7.5h-11.952v.56c.161-.013.327-.019.493-.019h1.8v34.681Zm75-35.222a4.651,4.651,0,0,0-3.391,1.411,4.642,4.642,0,0,0-1.408,3.39v26.16a4.64,4.64,0,0,0,1.408,3.39A4.651,4.651,0,0,0-8437.3-7894h.779a4.63,4.63,0,0,0,3.12-1.141.662.662,0,0,1,.481-.179.7.7,0,0,1,.511.21.7.7,0,0,1,.209.51v.119h.479v-7.02h-.479a13.3,13.3,0,0,1-.54,3.48,7.426,7.426,0,0,1-1.29,2.4,3.028,3.028,0,0,1-2.491,1.081h-.779a1.88,1.88,0,0,1-1.381-.541,1.883,1.883,0,0,1-.54-1.38v-30.84a1.885,1.885,0,0,1,.54-1.38,1.877,1.877,0,0,1,1.381-.54h.779a3.029,3.029,0,0,1,2.491,1.08,7.426,7.426,0,0,1,1.29,2.4,13.3,13.3,0,0,1,.54,3.48h.479v-7.02h-.479v.119a.7.7,0,0,1-.209.51.7.7,0,0,1-.511.209.661.661,0,0,1-.481-.179,4.628,4.628,0,0,0-3.12-1.142ZM-8541.164-7894h-4.619v-.54h2.1l4.619-15.122-5.339-19.559h-1.62v-.541h6.3v.541h-1.62l3.9,14.221,4.261-14.221h-1.981v-.541h4.621v.541h-2.1l-4.561,15.18,5.28,19.5h1.62v.539h-6.3v-.54h1.62l-3.842-14.221-4.318,14.221h1.979v.54Zm-30.12,0h-4.619v-.54h1.981l6.358-35.222h.72l6.239,35.222h1.681v.539h-6.3v-.54h1.739l-1.919-10.8h-6.06l-1.921,10.8h2.1v.54Zm2.879-28.2h0l-2.94,16.321h5.881l-2.94-16.321Zm-31.139,28.2h-.72l-6.061-34.26v33.72h2.04v.54h-4.619v-.54h2.039v-34.681h-2.039v-.541h5.22l4.98,28.2,5.1-28.2h4.8v.541h-1.739v34.681h1.739v.539h-6.3v-.54h1.682v-33.3l-6.121,33.841Zm118.86-16.443h-2.7v-18.779h2.7a1.907,1.907,0,0,1,1.351.54,1.829,1.829,0,0,1,.57,1.38v14.88a1.925,1.925,0,0,1-.57,1.411A1.852,1.852,0,0,1-8480.684-7910.441Z" transform="translate(8627.67 7945.11)"/></g></g></svg>